<?xml version="1.0" encoding="utf-8"?>
<!-- Generator: Adobe Illustrator 16.0.0, SVG Export Plug-In . SVG Version: 6.00 Build 0)  -->
<!DOCTYPE svg PUBLIC "-//W3C//DTD SVG 1.1//EN" "http://www.w3.org/Graphics/SVG/1.1/DTD/svg11.dtd">
<svg version="1.1" id="Слой_1" xmlns="http://www.w3.org/2000/svg" xmlns:xlink="http://www.w3.org/1999/xlink" x="0px" y="0px"
	 width="500px" height="500px" viewBox="0 0 299.716 237.203" enable-background="new 0 0 299.716 237.203"
	 xml:space="preserve">
<g>
	<g>
		<path fill="#FFFFFF" d="M196.815,114.217c1.473-2.316,2.564-4.875,4.094-7.848c-6.169-0.776-11.565-1.456-16.962-2.136
			c-0.171,0.288-0.342,0.575-0.513,0.863c2.252,3.208,4.314,6.576,6.813,9.579C192.577,117.472,194.893,117.242,196.815,114.217z
			 M228.034,113.991c2.16,4.788,4.128,9.68,6.623,14.286c0.582,1.076,3.508,2.112,4.404,1.577c4.02-2.401,7.697-5.378,11.498-8.146
			c-0.111-0.425-0.224-0.85-0.335-1.275c-6.978-2.592-13.956-5.186-20.933-7.778C228.873,113.1,228.453,113.545,228.034,113.991z
			 M103.301,114.211c1.822,2.975,4.026,3.331,6.296,0.714c2.641-3.043,4.813-6.493,7.188-9.766
			c-0.208-0.318-0.416-0.637-0.624-0.955c-5.311,0.677-10.621,1.354-16.933,2.158C100.814,109.452,101.901,111.927,103.301,114.211z
			 M65.534,128.513c2.388-4.794,4.458-9.746,6.659-14.634c-0.407-0.407-0.814-0.814-1.221-1.222
			c-7.021,2.62-14.043,5.239-21.064,7.858c-0.019,0.425-0.036,0.85-0.054,1.273c3.429,2.636,6.807,5.342,10.306,7.882
			C62.244,131.182,64.412,130.767,65.534,128.513z M223.165,219.266c-20.51-1.268-41.068-1.864-61.616-2.328
			c-11.208-0.254-22.435,0.309-33.653,0.559c-10.35,0.231-20.712,0.29-31.043,0.871c-14.033,0.789-28.063,1.781-42.05,3.137
			c-5.767,0.56-11.435,2.221-17.107,3.551c-0.938,0.219-1.669,1.314-2.495,2.006c0.848,0.794,1.575,2.036,2.566,2.304
			c4.421,1.198,8.872,2.659,13.396,3.043c20.201,1.714,40.414,3.426,60.657,4.469c12.697,0.654,25.454,0.122,38.184,0.122
			c-7.994,0.176,50.078-0.156,68.78-1.616c13.242-0.787,26.415-2.911,39.574-4.761c2.29-0.322,4.352-2.27,6.521-3.466
			c-2.208-1.166-4.31-3.026-6.64-3.38C246.582,222.008,234.907,219.992,223.165,219.266z M296.09,92.08
			c-5.117-6.763-13.459-9.618-21.193-7.032c-7.454,2.63-13.234,9.241-11.998,20.248c0.264,2.348,1.424,5.723,0.436,7.348
			c-5.076,8.352-11.303,15.826-19.829,20.989c-6.762,4.094-10.526,1.451-14.124-3.721c-0.986-1.418-1.691-3.055-2.372-4.655
			c-3.496-8.224-4.366-16.95-4.885-25.725c15.647-6.1,21.742-14.029,20.548-26.681c-0.966-10.251-9.568-19.109-20.116-20.715
			c-10.207-1.554-20.572,4.051-24.852,13.436c-5.293,11.607-2.011,21.127,11.726,32.347c-2.866,6.389-5.395,13.28-8.958,19.586
			c-3.03,5.36-8.037,5.74-12.542,1.534c-2.52-2.351-4.818-5.12-6.563-8.084c-10.029-17.043-15.445-35.759-19.495-54.944
			c-0.416-1.974,0.198-3.248,2.031-4.203c4.74-2.469,7.726-6.644,10.15-11.198c5.327-10.008,4.104-22.321-3.187-30.741
			c-7.574-8.751-17.281-11.811-28.326-8.664c-11.794,3.36-18.254,12.096-19.563,23.908c-1.221,11.009,3.711,19.976,12.695,26.265
			c2.64,1.848,3.1,3.494,2.366,6.067c-3.131,10.982-5.61,22.217-9.671,32.847c-3.479,9.106-8.046,18.014-13.5,26.085
			c-5.146,7.615-11.884,7.647-16.363-0.656c-3.138-5.818-5.188-12.223-7.654-18.194c2.243-1.583,3.815-2.583,5.267-3.735
			c9.98-7.928,11.558-23.723,3.338-33.137c-9.369-10.731-24.811-11.748-34.563-2.303c-6.691,6.479-9.029,14.357-6.663,23.237
			c2.357,8.843,8.22,14.564,17.226,16.968c1.036,0.277,2.64,1.609,2.578,2.333c-0.796,9.287-1.583,18.65-6.176,27.039
			c-4.753,8.68-9.329,9.927-17.399,4.306c-7.177-4.997-12.775-11.563-17.332-18.912c-0.517-0.833-0.579-1.526,0.05-3.526
			c1.119-3.567,0.747-8.072,0-11.249c-2.309-9.822-12.966-15.512-22.041-13.63c-8.296,2.054-10.885,4.8-13.955,10.63
			c-1.702,5.861-2.842,15.471,5.999,21.748c3.441,2.442,11.327,7.602,22.043,1.946c10.086,14.755,16.505,30.693,17.076,48.859
			c0.575,18.292-4.25,34.767-15.809,49.459c5.042-1.35,9.524-2.831,14.12-3.734c26.232-5.154,52.856-6.607,79.47-7.216
			c29.057-0.666,58.16-0.885,87.157,1.919c13.107,1.267,26.207,2.698,39.253,4.484c6.272,0.857,12.408,2.708,18.629,4.114
			c-26.503-34.445-14.051-78.306,2.369-97.761c9.101,4.263,17.574,2.278,23.966-5.613C300.901,107.027,301.144,98.76,296.09,92.08z
			 M93.65,172.167c-3.46,5.41-8.18,4.915-10.438-1.135c-1.444-3.867-1.757-8.156-2.577-12.256c0.34-6.855,1.617-13.352,4.969-19.127
			c1.426-2.459,4.257-5.441,6.682-5.663c3.458-0.316,5.011,3.461,5.822,6.737C100.846,151.799,99.869,162.444,93.65,172.167z
			 M152.537,174.741c-1.943,1.661-3.203,1.53-5.045-0.091c-14.115-12.415-17.697-35.544-7.631-51.465
			c2.298-3.635,5.477-6.708,8.203-10.079c1.32-1.633,2.363-1.517,3.967-0.146c7.415,6.337,14.241,18.284,13.869,31.409
			C165.552,156.289,161.912,166.728,152.537,174.741z M216.982,171.159c-0.637,1.852-3.02,3.974-4.885,4.271
			c-1.612,0.259-4.323-1.443-5.323-3.043c-6.788-10.86-8.149-22.505-3.566-34.537c1.916-5.031,6.475-5.372,9.68-1.008
			c4.787,6.521,6.081,14.035,6.569,22.013C218.691,162.976,218.332,167.237,216.982,171.159z"/>
	</g>
	<g>
		<path fill="none" stroke="#FFFFFF" stroke-miterlimit="10" d="M196.815,114.217c1.473-2.316,2.564-4.875,4.094-7.848
			c-6.169-0.776-11.565-1.456-16.962-2.136c-0.171,0.288-0.342,0.575-0.513,0.863c2.252,3.208,4.314,6.576,6.813,9.579
			C192.577,117.472,194.893,117.242,196.815,114.217z M228.034,113.991c2.16,4.788,4.128,9.68,6.623,14.286
			c0.582,1.076,3.508,2.112,4.404,1.577c4.02-2.401,7.697-5.378,11.498-8.146c-0.111-0.425-0.224-0.85-0.335-1.275
			c-6.978-2.592-13.956-5.186-20.933-7.778C228.873,113.1,228.453,113.545,228.034,113.991z M103.301,114.211
			c1.822,2.975,4.026,3.331,6.296,0.714c2.641-3.043,4.813-6.493,7.188-9.766c-0.208-0.318-0.416-0.637-0.624-0.955
			c-5.311,0.677-10.621,1.354-16.933,2.158C100.814,109.452,101.901,111.927,103.301,114.211z M65.534,128.513
			c2.388-4.794,4.458-9.746,6.659-14.634c-0.407-0.407-0.814-0.814-1.221-1.222c-7.021,2.62-14.043,5.239-21.064,7.858
			c-0.019,0.425-0.036,0.85-0.054,1.273c3.429,2.636,6.807,5.342,10.306,7.882C62.244,131.182,64.412,130.767,65.534,128.513z
			 M223.165,219.266c-20.51-1.268-41.068-1.864-61.616-2.328c-11.208-0.254-22.435,0.309-33.653,0.559
			c-10.35,0.231-20.712,0.29-31.043,0.871c-14.033,0.789-28.063,1.781-42.05,3.137c-5.767,0.56-11.435,2.221-17.107,3.551
			c-0.938,0.219-1.669,1.314-2.495,2.006c0.848,0.794,1.575,2.036,2.566,2.304c4.421,1.198,8.872,2.659,13.396,3.043
			c20.201,1.714,40.414,3.426,60.657,4.469c12.697,0.654,25.454,0.122,38.184,0.122c-7.994,0.176,50.078-0.156,68.78-1.616
			c13.242-0.787,26.415-2.911,39.574-4.761c2.29-0.322,4.352-2.27,6.521-3.466c-2.208-1.166-4.31-3.026-6.64-3.38
			C246.582,222.008,234.907,219.992,223.165,219.266z M296.09,92.08c-5.117-6.763-13.459-9.618-21.193-7.032
			c-7.454,2.63-13.234,9.241-11.998,20.248c0.264,2.348,1.424,5.723,0.436,7.348c-5.076,8.352-11.303,15.826-19.829,20.989
			c-6.762,4.094-10.526,1.451-14.124-3.721c-0.986-1.418-1.691-3.055-2.372-4.655c-3.496-8.224-4.366-16.95-4.885-25.725
			c15.647-6.1,21.742-14.029,20.548-26.681c-0.966-10.251-9.568-19.109-20.116-20.715c-10.207-1.554-20.572,4.051-24.852,13.436
			c-5.293,11.607-2.011,21.127,11.726,32.347c-2.866,6.389-5.395,13.28-8.958,19.586c-3.03,5.36-8.037,5.74-12.542,1.534
			c-2.52-2.351-4.818-5.12-6.563-8.084c-10.029-17.043-15.445-35.759-19.495-54.944c-0.416-1.974,0.198-3.248,2.031-4.203
			c4.74-2.469,7.726-6.644,10.15-11.198c5.327-10.008,4.104-22.321-3.187-30.741c-7.574-8.751-17.281-11.811-28.326-8.664
			c-11.794,3.36-18.254,12.096-19.563,23.908c-1.221,11.009,3.711,19.976,12.695,26.265c2.64,1.848,3.1,3.494,2.366,6.067
			c-3.131,10.982-5.61,22.217-9.671,32.847c-3.479,9.106-8.046,18.014-13.5,26.085c-5.146,7.615-11.884,7.647-16.363-0.656
			c-3.138-5.818-5.188-12.223-7.654-18.194c2.243-1.583,3.815-2.583,5.267-3.735c9.98-7.928,11.558-23.723,3.338-33.137
			c-9.369-10.731-24.811-11.748-34.563-2.303c-6.691,6.479-9.029,14.357-6.663,23.237c2.357,8.843,8.22,14.564,17.226,16.968
			c1.036,0.277,2.64,1.609,2.578,2.333c-0.796,9.287-1.583,18.65-6.176,27.039c-4.753,8.68-9.329,9.927-17.399,4.306
			c-7.177-4.997-12.775-11.563-17.332-18.912c-0.517-0.833-0.579-1.526,0.05-3.526c1.119-3.567,0.747-8.072,0-11.249
			c-2.309-9.822-12.966-15.512-22.041-13.63c-8.296,2.054-10.885,4.8-13.955,10.63c-1.702,5.861-2.842,15.471,5.999,21.748
			c3.441,2.442,11.327,7.602,22.043,1.946c10.086,14.755,16.505,30.693,17.076,48.859c0.575,18.292-4.25,34.767-15.809,49.459
			c5.042-1.35,9.524-2.831,14.12-3.734c26.232-5.154,52.856-6.607,79.47-7.216c29.057-0.666,58.16-0.885,87.157,1.919
			c13.107,1.267,26.207,2.698,39.253,4.484c6.272,0.857,12.408,2.708,18.629,4.114c-26.503-34.445-14.051-78.306,2.369-97.761
			c9.101,4.263,17.574,2.278,23.966-5.613C300.901,107.027,301.144,98.76,296.09,92.08z M93.65,172.167
			c-3.46,5.41-8.18,4.915-10.438-1.135c-1.444-3.867-1.757-8.156-2.577-12.256c0.34-6.855,1.617-13.352,4.969-19.127
			c1.426-2.459,4.257-5.441,6.682-5.663c3.458-0.316,5.011,3.461,5.822,6.737C100.846,151.799,99.869,162.444,93.65,172.167z
			 M152.537,174.741c-1.943,1.661-3.203,1.53-5.045-0.091c-14.115-12.415-17.697-35.544-7.631-51.465
			c2.298-3.635,5.477-6.708,8.203-10.079c1.32-1.633,2.363-1.517,3.967-0.146c7.415,6.337,14.241,18.284,13.869,31.409
			C165.552,156.289,161.912,166.728,152.537,174.741z M216.982,171.159c-0.637,1.852-3.02,3.974-4.885,4.271
			c-1.612,0.259-4.323-1.443-5.323-3.043c-6.788-10.86-8.149-22.505-3.566-34.537c1.916-5.031,6.475-5.372,9.68-1.008
			c4.787,6.521,6.081,14.035,6.569,22.013C218.691,162.976,218.332,167.237,216.982,171.159z"/>
	</g>
</g>
</svg>
