<?xml version="1.0" encoding="utf-8"?>
<!-- Generator: Adobe Illustrator 16.0.0, SVG Export Plug-In . SVG Version: 6.00 Build 0)  -->
<!DOCTYPE svg PUBLIC "-//W3C//DTD SVG 1.1//EN" "http://www.w3.org/Graphics/SVG/1.1/DTD/svg11.dtd">
<svg version="1.1" id="Слой_1" xmlns="http://www.w3.org/2000/svg" xmlns:xlink="http://www.w3.org/1999/xlink" x="0px" y="0px"
	 width="500px" height="500px" viewBox="0 0 500 500" enable-background="new 0 0 500 500" xml:space="preserve">
<g>
	<g>
		<path fill-rule="evenodd" clip-rule="evenodd" fill="#FFFFFF" d="M489.051,266.809v-39.838c0,0,0.102-3.786-3.414-6.829
			s-7.968-3.415-7.968-3.415h-96.747l-88.78-43.252l-108.139-0.078c0,0-6.004-0.906-9.266,2.078
			c-3.295,3.015-3.246,7.543-3.246,7.543v22.326l-4.553,4.553h-9.105l-3.415-3.415v-89.918c0,0-0.311-16.322-22.764-15.935
			c-22.453,0.388-22.764,15.935-22.764,15.935v99.024l-3.415,3.415l-38.699,29.593c0,0-1.622,0.372-3.415,4.553
			c-1.763,4.112,0,35.284,0,35.284s1.058,4.178,3.415,6.83c2.357,2.651,9.106,4.552,9.106,4.552h15.935l3.415,3.415v18.212
			c0,0,0.812,4.211,3.415,6.829c2.603,2.617,9.105,4.553,9.105,4.553l2.276,1.138v7.968l-3.415,3.414H24.664
			c0,0-19.643,3.351-19.35,25.041c0.26,19.256,18.211,26.179,18.211,26.179h198.047c0,0,15.851-4.418,15.935-26.179
			s-15.935-25.041-15.935-25.041h-79.674l-3.415-3.414v-7.968c0,0,4.433-1.137,7.967-4.553c4.267-4.123,5.691-7.967,5.691-7.967
			v-17.073c0,0,1.028-5.691,4.553-5.691c10.82,0,31.438,0,31.438,0s7.836-2.89,11.813-7.968c3.978-5.077,4.553-10.243,4.553-10.243
			h269.755c0,0,5.429,0.82,10.243-4.553C489.497,270.335,489.051,266.809,489.051,266.809z M335.394,247.458l-4.553,3.415H205.638
			l-4.553-3.415l0.197-39.502l4.668-6.026h73.67l55.772,28.455V247.458z"/>
	</g>
</g>
</svg>
